<svg data-v-423bf9ae="" xmlns="http://www.w3.org/2000/svg" viewBox="0 0 177.6734687323771 60" class="font"><!----><!----><!----><g data-v-423bf9ae="" id="0813cdad-0a89-4f8e-88b6-8a01c2894a10" fill="white" transform="matrix(6.1224488604322,0,0,6.1224488604322,-2.1428610139069946,-4.285714427340487)"><path d="M3.93 7.14L3.93 4.06L4.30 4.06C5.32 4.06 5.81 4.62 5.81 5.60C5.81 6.58 5.32 7.14 4.30 7.14ZM4.30 10.50C7.25 10.50 9.45 8.44 9.45 5.60C9.45 2.76 7.25 0.70 4.30 0.70L0.35 0.70L0.35 10.50ZM13.66 4.10L13.66 0.70L10.08 0.70L10.08 10.50L13.66 10.50L13.66 6.24L15.78 10.50L19.57 10.50L16.72 5.17L19.15 0.70L15.36 0.70ZM29.37 0.70L25.79 0.70L25.79 4.31L23.81 4.31L23.81 0.70L20.23 0.70L20.23 10.50L23.81 10.50L23.81 6.71L25.79 6.71L25.79 10.50L29.37 10.50Z"></path></g><!----><!----></svg>